<?xml version="1.0" encoding="utf-8"?>
<!-- Generator: Adobe Illustrator 27.5.0, SVG Export Plug-In . SVG Version: 6.00 Build 0)  -->
<svg version="1.1" xmlns="http://www.w3.org/2000/svg" xmlns:xlink="http://www.w3.org/1999/xlink" x="0px" y="0px"
	 viewBox="0 0 2200 2200" style="enable-background:new 0 0 2200 2200;" xml:space="preserve">
<g id="background">
	<rect style="fill:#FFFFFF;" width="2200" height="2200"/>
</g>
<g id="Objects">
	<g>
		<g>
			<path d="M1789.601,940.541c-48.662,12.947-100.271,3.024-150.471,6.952c-50.2,3.941-106.163,29.797-116.165,79.157
				c-7.585,37.395,13.774,73.653,29.629,108.36c15.854,34.707,25.094,79.997-1.279,107.572
				c-37.55,39.281-106.137,5.828-156.751,25.61c-52.061,20.364-65.952,89.197-55.123,144.049
				c14.291,72.503,56.932,136.555,106.809,191.083c34.384,37.589,72.864,71.999,100.736,114.64
				c27.885,42.641,44.243,96.55,28.453,144.979c-15.777,48.443-71.857,84.675-119.356,66.249
				c-59.568-23.13-66.262-102.506-71.572-166.184c-4.717-56.506-17.199-114.963-53.121-158.857
				c-35.909-43.881-100.62-68.239-151.556-43.313c-34.604,16.94-56.054,51.764-82.698,79.597
				c-26.631,27.833-68.032,50.265-102.584,33.221c-56.971-28.091-46.414-136.632-109.174-146.414
				c-70.577-10.996-90.528,124.202-161.933,122.173c-36.581-1.034-60.331-40.703-64.621-77.051
				c-4.277-36.335,3.45-73.756-4.613-109.445c-9.756-43.248-44.011-80.075-86.445-92.958c-42.421-12.87-91.368-1.292-123.53,29.241
				c-23.595,22.393-38.383,49.923-70.829,47.597c-37.136-2.662-56.46-50.466-34.3-80.379c22.16-29.913,62.501-39.126,99.56-42.719
				s76.366-4.316,107.908-24.099c31.529-19.783,48.973-67.631,23.504-94.792c-47.784-50.963-144.747,41.207-198.345-3.605
				c-33.829-28.285-13.064-87.634,24.848-110.156s84.558-22.277,127.587-31.916c43.029-9.64,89.249-37.563,92.441-81.548
				c3.644-50.446-51.376-91.329-47.021-141.723c3.773-43.778,49.399-70.177,90.373-86.07
				c40.974-15.893,88.008-33.596,103.514-74.712c15.209-40.276-8.425-86.006-41.271-113.826
				c-32.859-27.807-74.015-43.649-110.13-67.089c-36.116-23.427-69.259-59.206-70.138-102.235
				c-0.93-44.683,33.854-83.266,73.679-103.527c34.216-17.418,80.333-23,107.623,4.032c30.663,30.378,20.132,80.708,18.129,123.84
				c-2.546,54.438,14.73,112.443,56.842,147.021c42.124,34.578,111.371,37.266,148.262-2.856
				c26.786-29.112,34.759-75.617,69.595-94.379c36.219-19.512,80.579,2.042,113.554,26.657
				c32.963,24.615,67.902,54.361,108.967,51.647c43.933-2.881,76.47-42.667,94.056-83.034
				c17.599-40.38,26.438-85.127,51.815-121.113c25.365-35.999,76.198-60.395,113.877-37.602
				c32.847,19.86,39.721,67.037,25.546,102.713c-14.162,35.676-43.881,62.476-72.632,87.905
				c-26.757,23.682-72.227,61.786-103.51,107.435c-34.65,50.563,39.329,104.468,76.361,55.623
				c14.047-18.529,25.909-38.92,33.985-58.303c17.071-40.971,34.862-72.852,79.028-77.31c39.088-3.954,79.506,18.413,96.911,53.624
				c17.405,35.224,10.622,80.915-16.255,109.562c-23.375,24.926-57.643,35.612-88.073,51.156
				c-30.43,15.532-60.667,41.491-61.532,75.656c-1.021,40.07,41.491,70.422,81.573,70.603
				c40.083,0.181,76.819-21.191,110.169-43.429c33.35-22.238,67.076-46.621,106.512-53.844c39.424-7.223,86.6,8.916,100.193,46.634
				C1883.696,878.014,1838.263,927.581,1789.601,940.541z"/>
		</g>
		<g>
			<path d="M1080.63,1789.677c-1.805,20.776-25.21,38.942-51.889,40.856c-26.665,1.904-53.624-12.237-62.018-32.013
				c-8.38-19.776,2.085-43.282,23.993-55.258c9.709-5.319,21.307-8.245,33.142-8.833
				C1058.998,1736.377,1082.826,1764.441,1080.63,1789.677z"/>
		</g>
		<g>
			<path d="M1039.328,1913.053c-1.307,15.04-18.25,28.19-37.563,29.576c-19.303,1.378-38.819-8.859-44.895-23.174
				c-6.066-14.316,1.509-31.332,17.369-40.002c7.029-3.851,15.424-5.969,23.992-6.394
				C1023.668,1874.469,1040.918,1894.784,1039.328,1913.053z"/>
		</g>
		<g>
			<path d="M1833.25,1257.584c-10.131,13.438-32.356,16.333-44.373,4.561c-11.203-10.996-10.479-30.572-0.995-43.08
				c3.984-5.246,9.138-9.36,14.94-12.429c8.889-4.702,19.991-2.938,26.813,4.45c0.038,0.041,0.076,0.082,0.114,0.123
				C1841.119,1223.613,1843.367,1244.159,1833.25,1257.584z"/>
		</g>
		<g>
			<path d="M1699.218,1344.752c-3.437,24.344-24.331,45.057-48.65,48.637c-24.331,3.579-50.123-10.04-61.209-31.994
				c-3.915-7.727-6.125-16.514-5.065-25.106c1.06-8.49,5.207-16.333,10.324-23.194c9.344-12.506,22.369-22.112,36.887-27.824
				c10.812-4.254,22.892-4.549,33.658-0.181c0.067,0.027,0.133,0.054,0.2,0.082
				C1688.092,1294.539,1702.655,1320.395,1699.218,1344.752z"/>
		</g>
		<g>
			<path d="M1680.362,1193.984c-2.222-6.474-0.401-13.8,3.243-19.602c0.772-1.229,1.618-2.404,2.521-3.534
				c8.105-10.137,24.179-8.672,29.871,2.992c0.035,0.073,0.071,0.146,0.105,0.219c4.781,10.04,1.447,23.634-8.128,29.293
				C1698.401,1209.012,1683.968,1204.502,1680.362,1193.984z"/>
		</g>
		<g>
			<path d="M491.944,811.008c-0.105,0.092-0.211,0.183-0.316,0.274c-20.211,17.439-51.109,14.675-68.021-5.979
				c-1.933-2.361-3.756-4.826-5.458-7.395c-15.338-23.181-19.511-55.027-7.727-80.411c11.784-25.371,40.406-41.817,66.546-35.424
				c24.861,6.081,43.274,31.533,45.329,58.305C524.364,767.163,511.611,793.894,491.944,811.008z"/>
		</g>
		<g>
			<path d="M1187.326,275.122c-2.887,6.954-12.301,7.864-19.795,7.032c-4.799-0.533-9.72-1.386-13.794-3.982
				c-4.081-2.602-7.131-7.331-6.421-12.109c0.132-0.898,0.389-1.757,0.75-2.57c1.623-3.652,5.313-5.944,9.305-6.13
				c9.679-0.451,18.517,0.426,22.339,2.237C1185.47,262.316,1189.772,269.242,1187.326,275.122z"/>
		</g>
		<g>
			<path d="M1142.973,361.344c-1.551,8.851-8.67,15.919-16.772,19.796c-8.115,3.876-17.198,5.078-26.114,6.228
				c-13.917,1.796-27.988,3.592-41.917,1.925c-13.929-1.68-27.897-7.21-37.02-17.87c-0.048-0.056-0.096-0.113-0.143-0.169
				c-7.946-9.429-5.797-23.693,4.239-30.856c4.186-2.988,8.602-5.653,13.206-7.946c22.768-11.358,49.929-13.593,74.247-6.138
				C1128.85,331.276,1145.88,344.689,1142.973,361.344z"/>
		</g>
		<path style="fill:#FFFFFF;" d="M1561.704,1851.302c-15.622,36.839-54.516,58.224-93.28,58.224
			c72.697-38.803,81.858-85.553,81.328-133.983C1567.273,1795.778,1572.843,1824.994,1561.704,1851.302z"/>
		<path style="fill:#FFFFFF;" d="M690.99,299.079c31.118,11.655,40.455,49.233,36.61,86.398
			c-23.634-69.606-71.34-79.91-116.379-66.689C624.902,299.311,668.77,290.773,690.99,299.079z"/>
		<path style="fill:#FFFFFF;" d="M1676.515,1347.667c-7.811,18.42-27.258,29.112-46.64,29.112
			c36.348-19.402,40.929-42.777,40.664-66.992C1679.299,1319.905,1682.084,1334.513,1676.515,1347.667z"/>
		<path style="fill:#FFFFFF;" d="M423.243,1406.568c-8.761,17.289-27.084,29.81-47.047,28.453
			c-14.252-0.982-26.024-10.066-31.089-22.458C366.583,1423.754,389.505,1430.227,423.243,1406.568z"/>
		<path style="fill:#FFFFFF;" d="M450.019,1191.329c-21.204,10.596-48.314,9.536-66.933-6.344
			c-13.283-11.345-12.157-30.958-6.051-44.708C384.095,1169.278,399.651,1189.972,450.019,1191.329z"/>
		<path style="fill:#FFFFFF;" d="M1049.249,1809.889c-17.367,9.937-39.32,6.693-54.761-5.026c40.69,6.525,58.47-9.317,72.903-28.763
			C1068.257,1789.46,1061.641,1802.769,1049.249,1809.889z"/>
		<path style="fill:#FFFFFF;" d="M505.202,763.297c-8.993,21.23-31.399,33.583-53.741,33.622
			c41.879-22.432,47.125-49.373,46.789-77.284C508.367,731.29,511.585,748.114,505.202,763.297z"/>
		<path style="fill:#FFFFFF;" d="M1121.985,370.069c-8.154,8.929-21.385,10.802-49.606,10.802
			c37.369-9.484,47.512-16.979,51.04-43.933C1127.825,347.586,1130.539,360.701,1121.985,370.069z"/>
		<path style="fill:#FFFFFF;" d="M1830.865,1244.982c-4.894,11.541-17.078,18.24-29.222,18.24
			c22.774-12.156,25.644-26.802,25.478-41.974C1832.609,1227.588,1834.354,1236.74,1830.865,1244.982z"/>
		<path style="fill:#FFFFFF;" d="M1824.055,810.164c19.878,16.453,25.912,44.432,18.756,68.384
			c-10.556-52.081-37.751-66.371-67.773-74.984C1790.776,796.473,1809.855,798.425,1824.055,810.164z"/>
		<path style="fill:#FFFFFF;" d="M1491.437,415.863c17.328-50.226,1.15-76.34-20.351-99.005
			c17.16,1.887,32.614,13.245,38.894,30.572C1518.753,371.697,1509.747,398.858,1491.437,415.863z"/>
		<path style="fill:#FFFFFF;" d="M1620.555,610.274c-1.305,31.735-24.228,58.496-53.03,69.337
			c43.171-49.153,36.904-86.445,22.974-122.276C1609.184,567.465,1621.485,587.623,1620.555,610.274z"/>
	</g>
</g>
</svg>
